PathFileType	4	(X/Y/Z)	59_2_96_p1_0-369_filt_butterworth.trc
DataRate	CameraRate	NumFrames	NumMarkers	Units	OrigDataRate	OrigDataStartFrame	OrigNumFrames
53.0	53.0	6	27	m	53.0	92	369
Frame#	Time	RHip			RKnee			RAnkle			RBigToe			RSmallToe			RHeel			LHip			LKnee			LAnkle			LBigToe			LSmallToe			LHeel			Neck			Head			Nose			RShoulder			RElbow			RWrist			RThumb			RIndex			RPinky			LShoulder			LElbow			LWrist			LThumb			LIndex			LPinky			
		X1	Y1	Z1	X2	Y2	Z2	X3	Y3	Z3	X4	Y4	Z4	X5	Y5	Z5	X6	Y6	Z6	X7	Y7	Z7	X8	Y8	Z8	X9	Y9	Z9	X10	Y10	Z10	X11	Y11	Z11	X12	Y12	Z12	X13	Y13	Z13	X14	Y14	Z14	X15	Y15	Z15	X16	Y16	Z16	X17	Y17	Z17	X18	Y18	Z18	X19	Y19	Z19	X20	Y20	Z20	X21	Y21	Z21	X22	Y22	Z22	X23	Y23	Z23	X24	Y24	Z24	X25	Y25	Z25	X26	Y26	Z26	X27	Y27	Z27	
92	1.7358490566037736	0.3438132755256892	0.5034137129434029	1.0541913501337081	0.28843151380207255	0.5818680407448461	1.479205343865831	0.2887772368584903	0.7717277928748085	1.8919542028508565	0.2791197481211951	0.5639841465717463	1.9354177778572201	0.33697007594074857	0.5976206917609781	1.9287208381097418	0.28588170881814373	0.8459557715248174	1.959390083937135	0.13151683129595917	0.5488342058094925	1.0301851560251614	0.1288711290388486	0.6445313070113903	1.4898548892960437	0.13141909260901985	0.7495341131250505	1.8768207176199454	0.12128576791420578	0.566790882129659	1.9292799584864175	0.06999161775466752	0.6222588454421277	1.9302386973274486	0.14772545554780786	0.8225866305636841	1.9371718251589245	0.259107755176028	0.4761965070968748	0.5005494933891319	0.25693680182538986	0.3957875402715847	0.26668716210805793	0.23779534393059365	0.3654574915811456	0.39076127830707463	0.40596507241546886	0.47056150210230735	0.5531657485075219	0.3554953299769464	0.36236879262587013	0.8083557978221301	0.1659432070180547	0.42884146052075933	0.7136368965353266	0.0882792079507169	0.4791519660591665	0.6971929637008865	0.07853868006706655	0.4570518790417917	0.7127818852385561	0.08106715020114942	0.4163588941640642	0.7624463839416091	0.11486257366547978	0.5130645980438617	0.5700283343220998	-0.03297266898380774	0.46297674055249105	0.7200735726360392	0.027502050397330755	0.19949737318790067	0.8057871042342057	0.059811816867937066	0.07497495668849169	0.8400511873859862	0.05426806994695207	0.048058272575550176	0.8471910086648433	0.007541387768666016	0.10788485859109642	0.8754334432664375
93	1.7547169811320755	0.3436464282156074	0.5070234425015405	1.0536034925897404	0.2874964502773919	0.5782528450802251	1.480190746663695	0.2887969618646006	0.7717098779841556	1.8920550350932637	0.279106643343931	0.564026733264308	1.9354327925096375	0.3369588290910197	0.5976546775826018	1.9287301391790215	0.2859167563079335	0.8458984089240562	1.9594556834125614	0.13169544273539274	0.5483726408301466	1.0310246502652292	0.12912141110820094	0.644982893262523	1.4916608946457912	0.13184722561923842	0.7496997838087065	1.8768768360907895	0.12016674694724924	0.5614907114470333	1.9270614697539021	0.06999657711631442	0.6223099956359808	1.9302413560987826	0.14783752996803667	0.8226601164249452	1.9371152638592313	0.25987427747589714	0.4761461391728562	0.5004431018654844	0.2568823122678187	0.3954364269872475	0.2657067149622826	0.2375636469092711	0.36617703547665015	0.3895235823287585	0.40413176196800793	0.4650036273784514	0.553473396012624	0.35087244027352843	0.36213112034008255	0.809798277420092	0.16576426559508364	0.42940936895512377	0.7132771802390798	0.08967094106628655	0.47742639997541	0.6969108204135447	0.07885763987075028	0.45977788164502	0.7103287510943953	0.08086254423994012	0.4155238745177215	0.7578684895971741	0.11606906586861526	0.513965397717554	0.5698815380426533	-0.029764850179200112	0.4649249396160131	0.7205549640329261	0.028313857026317005	0.20070914413873653	0.8075008486026649	0.061813783808367447	0.08543165821480585	0.8409778504930452	0.05426653456775458	0.05214180379489768	0.8485846081537427	0.00352607311506725	0.11619034150693869	0.8796374844319639
94	1.7735849056603774	0.3435363903724492	0.5139780712269639	1.0535240274411026	0.287351617962113	0.5775183283328884	1.48068422867686	0.28881785868435655	0.7716845419524083	1.892183472609537	0.279077345067113	0.564055282017218	1.935453868799695	0.3369437610162093	0.597758520356584	1.928748300220197	0.28596173173285216	0.8458748988734142	1.9594734302683148	0.13193194690625273	0.5510572349706285	1.032602148985564	0.12947598553988554	0.6454146504715679	1.4937227586912238	0.13250726885360656	0.7505833408325063	1.8784497666360762	0.11934268570384543	0.5579476869690573	1.925452573425559	0.07002472189649978	0.6224131293215558	1.930257352020015	0.14792402478751562	0.822942212802786	1.9371027035415596	0.2610130868425418	0.4723883733556067	0.500752413279759	0.2568143028006846	0.39458622446499275	0.26430767333274274	0.23762742470728823	0.36559479361086217	0.3883663776633667	0.4019151507603228	0.45830835579086626	0.5545618715529672	0.34643686562569415	0.35815964291388436	0.8117786183382442	0.16573134233147263	0.42960772592665847	0.712595718171056	0.09142409677761609	0.4743933471909389	0.6961474918649624	0.07839319915460043	0.4581362229521324	0.7068616596487517	0.08063618919788437	0.41240832862104615	0.7535851919226547	0.11678533462917738	0.5160945234620656	0.569790917089168	-0.026749630823638626	0.46868709429672195	0.7220788558187436	0.030333041538422915	0.20376517432418215	0.8095865291028569	0.06802831411249227	0.09385828581691175	0.842868481719214	0.05568538329199893	0.05469021236339893	0.8504530685393201	0.0023921158520436225	0.11708608222947592	0.8842477081531497
95	1.7924528301886793	0.34344426737941003	0.5221048524531463	1.0549240273027036	0.2875767868733896	0.5784164803673928	1.4806249756753944	0.28878140175665074	0.7715471135360709	1.892189356792018	0.2790485245764151	0.5639846373409421	1.9354545872622537	0.33692117676264344	0.5978775043748915	1.9287518984580978	0.28599192664360373	0.8458919696000089	1.9594124470663132	0.13182918449587844	0.5596072195565213	1.0342654945792629	0.12975571674160452	0.6453107382542566	1.4949169314449529	0.13341609869217888	0.7536630297349817	1.881343829953037	0.11900909902267429	0.5570989628964003	1.9249056920110943	0.07006412309225123	0.6225531746318981	1.9302695155302387	0.1479291415896809	0.8233293273323579	1.9371584733984937	0.26241086165076133	0.46713055874283016	0.5017257889989167	0.25679442263063323	0.393749273436377	0.2633522527290474	0.23767713846507932	0.3650123995169091	0.38760663116511107	0.3996162211890979	0.45179631854588104	0.5564505312520944	0.3423425517721824	0.3494736051957475	0.8137931778586026	0.16559355098270268	0.42883979183829324	0.7121761477476943	0.09246673584405544	0.4731997975049824	0.6934940449404037	0.07733166606716271	0.4531077364401854	0.7040002495149306	0.08044357482826066	0.4104457244094679	0.7516834945319695	0.11836320696248054	0.5231741579514646	0.5695953150088053	-0.02500500151550251	0.475187589437176	0.7244002639848625	0.032732719159749006	0.20838758515870737	0.8118454216784067	0.07685095143501515	0.09846364022335946	0.8462191754142554	0.05769971078110475	0.0563590685489224	0.8526438917951679	0.003986490522926732	0.11640260618953902	0.8891407996032139
96	1.8113207547169807	0.3433593810699649	0.5292877572666882	1.0576424702826934	0.2877247647056374	0.5793037936167362	1.4803238693522116	0.288652946548582	0.7711709752505966	1.8919620602062523	0.2790295284947482	0.5637967142908076	1.9354200849120338	0.3368704321920226	0.5978377412368497	1.9287352193579301	0.2860447208889162	0.8457513857820409	1.9597302151102425	0.13136786806139986	0.5717678251305666	1.0364597005201877	0.12986018293955293	0.6444980609734099	1.495009014885949	0.1341945523814312	0.7571819651483207	1.8839174129242175	0.1189376368935567	0.5575565978413357	1.9249155669764804	0.0700882561259765	0.6226593641026807	1.9302578935385886	0.1478699416700036	0.8235406959323739	1.9371965920613865	0.26341814976471356	0.46358287315382923	0.5030788390849232	0.2567903020701302	0.3933590442845437	0.2631639927691927	0.2376640347262685	0.3647888345442501	0.3874058493638138	0.39733008028722216	0.44592403870956787	0.5586741697588838	0.33849628201863013	0.34158136385168286	0.8152832265546981	0.16544688074198227	0.42774885228125104	0.7125111837006148	0.0926947122794199	0.47352425207032794	0.6899568567749829	0.07741453663116019	0.45197497822745625	0.7027583163457956	0.0806162717907685	0.41407667964647055	0.7527077181893939	0.12112573271370397	0.5334365529362878	0.5692499952370246	-0.024664191498198096	0.48114289219396444	0.7269679960092784	0.03432203713806951	0.21240919627505178	0.8149314831212218	0.08599841996250635	0.10546523295717128	0.8511282784727503	0.059907860770441704	0.05983615680206297	0.8560564293311376	0.007655075650701809	0.11690797142910075	0.8942045393984427
97	1.830188679245283	0.343292932086574	0.5336191602779576	1.0603932585609672	0.2870330312703347	0.5798084015282892	1.4803310817829158	0.2885647525221376	0.7708873931069015	1.8917967463441667	0.27901780473210297	0.5636151862184259	1.9353723832995975	0.336803618511536	0.597563841297441	1.9287177408989526	0.28616922482208323	0.8452382948118784	1.9609086290142868	0.13120857770670255	0.5809535544016126	1.0395496191200841	0.12983245242655372	0.6435632275783894	1.4946421701371229	0.13448571108487103	0.7586932027908689	1.8849262134311102	0.11892405254193333	0.5579874518463448	1.9250029059477713	0.07008788569923412	0.6227008856872434	1.9302402547565385	0.14780101914890711	0.8234863938217075	1.9370802221863475	0.2643776588102635	0.4628403858766763	0.5040316070599601	0.2568022928279711	0.393589926342204	0.2633349002866464	0.23764289448086123	0.36476415085243247	0.3874942931296593	0.3953377278087866	0.4400479630551958	0.5605927240759441	0.33499573482261125	0.3380677263169231	0.8161800204313396	0.1656424170448689	0.4282746767679269	0.7132193321713372	0.09346592270258695	0.4753358557510906	0.6879990018258954	0.08033287012371947	0.460786501084234	0.7030361975315973	0.0817486320151829	0.4242915073902287	0.7545458887584877	0.12440717499534744	0.5424467282352676	0.5688663116997296	-0.024302148213669526	0.48010152677691215	0.7297883373869651	0.03520260503464134	0.21506059189882282	0.8210202786450895	0.09407076883029139	0.11774965087142364	0.8580102399462473	0.06322480453981963	0.0686555409896701	0.8642185195182305	0.012548904135240749	0.11858922018522708	0.8994763631724456
